<svg width="150" height="150" viewBox="0 0 150 150" fill="none" xmlns="http://www.w3.org/2000/svg">
<rect width="150" height="150" fill="white"/>
<path d="M74.9995 53.1565C74.9995 51.7889 75.5365 50.4773 76.4925 49.5103C77.4485 48.5433 78.745 48 80.0969 48C81.4489 48 82.7454 48.5433 83.7014 49.5103C84.6574 50.4773 85.1944 51.7889 85.1944 53.1565C85.1944 54.5241 84.6574 55.8357 83.7014 56.8027C82.7454 57.7697 81.4489 58.313 80.0969 58.313C78.745 58.313 77.4485 57.7697 76.4925 56.8027C75.5365 55.8357 74.9995 54.5241 74.9995 53.1565ZM71.4419 69.4102C71.3357 69.4532 71.2401 69.4962 71.1339 69.5391L70.2843 69.9151C68.5427 70.6994 67.2046 72.1926 66.5993 74.0188L66.3232 74.8568C65.7285 76.6616 63.8063 77.6284 62.0222 77.0268C60.2381 76.4252 59.2823 74.4808 59.877 72.676L60.1531 71.8381C61.3638 68.1748 64.04 65.1883 67.5232 63.6199L68.3728 63.2439C70.5817 62.2556 72.9711 61.7399 75.3924 61.7399C80.1288 61.7399 84.3979 64.619 86.2139 69.0342L87.8493 72.9983L90.1219 74.1478C91.7999 74.9964 92.4795 77.059 91.6406 78.7564C90.8016 80.4537 88.7626 81.1413 87.0847 80.2926L84.2386 78.8638C83.1448 78.3052 82.2846 77.3813 81.8173 76.2318L80.7978 73.761L78.7482 80.7975L84.005 86.5986C84.5785 87.2324 84.982 87.9951 85.1944 88.833L87.6369 98.7271C88.0936 100.564 86.9891 102.433 85.1625 102.895C83.336 103.357 81.4987 102.24 81.0421 100.392L78.7058 90.9279L71.1976 82.6452C69.6259 80.9157 69.0418 78.4986 69.6365 76.2318L71.4313 69.4102H71.4419ZM65.3037 90.756L67.9586 84.0525C68.1816 84.3748 68.4365 84.6756 68.702 84.9764L73.0242 89.7462L71.4844 93.635C71.2295 94.2796 70.8472 94.8705 70.3587 95.3646L63.8063 101.993C62.4789 103.336 60.3231 103.336 58.9956 101.993C57.6681 100.65 57.6681 98.4693 58.9956 97.1264L65.3037 90.756Z" fill="#2D5C99"/>
<path d="M46.7614 14.4545H48.8636L53.8068 26.5284H53.9773L58.9205 14.4545H61.0227V29H59.375V17.9489H59.233L54.6875 29H53.0966L48.5511 17.9489H48.4091V29H46.7614V14.4545ZM66.3157 14.4545V29H64.5543V14.4545H66.3157ZM70.4439 29H68.5973L73.9382 14.4545H75.7564L81.0973 29H79.2507L74.9041 16.7557H74.7905L70.4439 29ZM71.1257 23.3182H78.5689V24.8807H71.1257V23.3182ZM83.3629 14.4545H85.4652L90.4084 26.5284H90.5788L95.522 14.4545H97.6243V29H95.9766V17.9489H95.8345L91.2891 29H89.6982L85.1527 17.9489H85.0107V29H83.3629V14.4545ZM102.917 14.4545V29H101.156V14.4545H102.917Z" fill="#2D5C99"/>
<path d="M34.4034 135L30.4261 120.455H32.2159L35.2557 132.301H35.3977L38.4943 120.455H40.483L43.5795 132.301H43.7216L46.7614 120.455H48.5511L44.5739 135H42.7557L39.5455 123.409H39.4318L36.2216 135H34.4034ZM50.2095 135H48.3629L53.7038 120.455H55.522L60.8629 135H59.0163L54.6697 122.756H54.5561L50.2095 135ZM50.8913 129.318H58.3345V130.881H50.8913V129.318ZM63.1286 135V120.455H64.8899V133.438H71.6513V135H63.1286ZM74.3786 135V120.455H76.1399V127.67H76.3104L82.8445 120.455H85.1456L79.0376 127.017L85.1456 135H83.0149L77.9581 128.239L76.1399 130.284V135H74.3786ZM89.1868 120.455V135H87.4254V120.455H89.1868ZM104.252 120.455V135H102.548L94.6218 123.58H94.4798V135H92.7184V120.455H94.4229L102.377 131.903H102.52V120.455H104.252ZM117.72 125C117.564 124.522 117.358 124.093 117.102 123.714C116.851 123.331 116.551 123.004 116.2 122.734C115.855 122.464 115.462 122.259 115.021 122.116C114.581 121.974 114.098 121.903 113.572 121.903C112.711 121.903 111.927 122.126 111.222 122.571C110.516 123.016 109.955 123.672 109.538 124.538C109.122 125.405 108.913 126.468 108.913 127.727C108.913 128.987 109.124 130.05 109.545 130.916C109.967 131.783 110.537 132.438 111.257 132.884C111.977 133.329 112.786 133.551 113.686 133.551C114.519 133.551 115.253 133.374 115.888 133.018C116.527 132.659 117.024 132.152 117.379 131.499C117.739 130.84 117.919 130.066 117.919 129.176L118.459 129.29H114.084V127.727H119.624V129.29C119.624 130.488 119.368 131.529 118.857 132.415C118.35 133.3 117.649 133.987 116.754 134.474C115.864 134.957 114.841 135.199 113.686 135.199C112.398 135.199 111.267 134.896 110.291 134.29C109.321 133.684 108.563 132.822 108.018 131.705C107.479 130.587 107.209 129.261 107.209 127.727C107.209 126.577 107.363 125.542 107.67 124.624C107.983 123.7 108.423 122.914 108.991 122.266C109.56 121.617 110.232 121.12 111.009 120.774C111.785 120.429 112.64 120.256 113.572 120.256C114.339 120.256 115.054 120.372 115.717 120.604C116.385 120.831 116.979 121.155 117.5 121.577C118.026 121.993 118.464 122.493 118.814 123.075C119.164 123.653 119.406 124.295 119.538 125H117.72Z" fill="#2D5C99"/>
</svg>
